<svg width="293" height="90" viewBox="0 0 293 90" fill="none" xmlns="http://www.w3.org/2000/svg">
<g filter="url(#filter0_d_1_90)">
<rect x="15" y="11" width="263" height="60" rx="21" fill="#FFAA01"/>
</g>
<path d="M96 41L95.5371 40.8111C95.4876 40.9322 95.4876 41.0678 95.5371 41.1889L96 41ZM116 41L116.463 41.1889C116.512 41.0678 116.512 40.9322 116.463 40.811L116 41ZM106 47.5C102.611 47.5 100.235 45.8444 98.6897 44.1618C97.9165 43.3198 97.3568 42.4763 96.9909 41.8435C96.8082 41.5275 96.6745 41.2654 96.5873 41.084C96.5437 40.9934 96.5117 40.9231 96.4911 40.8764C96.4808 40.8531 96.4733 40.8357 96.4686 40.8247C96.4663 40.8191 96.4647 40.8152 96.4637 40.8129C96.4632 40.8118 96.4629 40.8111 96.4628 40.8107C96.4627 40.8106 96.4627 40.8105 96.4627 40.8106C96.4627 40.8106 96.4628 40.8107 96.4628 40.8107C96.4629 40.8109 96.4629 40.8111 96 41C95.5371 41.1889 95.5372 41.1892 95.5373 41.1894C95.5373 41.1895 95.5374 41.1898 95.5375 41.1901C95.5377 41.1905 95.538 41.1911 95.5383 41.1918C95.5388 41.1932 95.5396 41.195 95.5405 41.1972C95.5423 41.2017 95.5449 41.2078 95.5482 41.2155C95.5547 41.231 95.5642 41.2529 95.5765 41.2808C95.6013 41.3367 95.6377 41.4168 95.6861 41.5175C95.7831 41.719 95.9284 42.0037 96.1252 42.344C96.5182 43.0237 97.1192 43.9302 97.9532 44.8382C99.6222 46.6556 102.246 48.5 106 48.5V47.5ZM96 41C96.4629 41.1889 96.4629 41.1891 96.4628 41.1893C96.4628 41.1893 96.4627 41.1894 96.4627 41.1894C96.4627 41.1895 96.4627 41.1894 96.4628 41.1893C96.4629 41.1889 96.4632 41.1882 96.4637 41.1871C96.4647 41.1848 96.4663 41.1809 96.4686 41.1753C96.4733 41.1643 96.4808 41.1469 96.4911 41.1236C96.5117 41.0769 96.5437 41.0066 96.5873 40.916C96.6745 40.7346 96.8082 40.4725 96.9909 40.1565C97.3568 39.5237 97.9165 38.6802 98.6897 37.8382C100.235 36.1556 102.611 34.5 106 34.5V33.5C102.246 33.5 99.6222 35.3444 97.9532 37.1618C97.1192 38.0698 96.5182 38.9763 96.1252 39.656C95.9284 39.9963 95.7831 40.281 95.6861 40.4825C95.6377 40.5832 95.6013 40.6633 95.5765 40.7192C95.5642 40.7471 95.5547 40.769 95.5482 40.7845C95.5449 40.7922 95.5423 40.7983 95.5405 40.8028C95.5396 40.805 95.5388 40.8068 95.5383 40.8082C95.538 40.8089 95.5377 40.8095 95.5375 40.8099C95.5374 40.8102 95.5373 40.8105 95.5373 40.8106C95.5372 40.8108 95.5371 40.8111 96 41ZM106 34.5C109.389 34.5 111.765 36.1556 113.31 37.8382C114.084 38.6802 114.643 39.5237 115.009 40.1565C115.192 40.4725 115.325 40.7346 115.413 40.916C115.456 41.0066 115.488 41.0769 115.509 41.1236C115.519 41.1469 115.527 41.1643 115.531 41.1753C115.534 41.1809 115.535 41.1848 115.536 41.1871C115.537 41.1882 115.537 41.189 115.537 41.1893C115.537 41.1894 115.537 41.1895 115.537 41.1894C115.537 41.1894 115.537 41.1893 115.537 41.1893C115.537 41.1891 115.537 41.1889 116 41C116.463 40.811 116.463 40.8108 116.463 40.8106C116.463 40.8105 116.463 40.8102 116.462 40.8099C116.462 40.8095 116.462 40.8089 116.462 40.8082C116.461 40.8068 116.46 40.805 116.46 40.8028C116.458 40.7983 116.455 40.7922 116.452 40.7845C116.445 40.769 116.436 40.7471 116.423 40.7192C116.399 40.6633 116.362 40.5832 116.314 40.4825C116.217 40.281 116.072 39.9963 115.875 39.656C115.482 38.9763 114.881 38.0698 114.047 37.1618C112.378 35.3444 109.753 33.5 106 33.5V34.5ZM116 41C115.537 40.811 115.537 40.8109 115.537 40.8107C115.537 40.8107 115.537 40.8106 115.537 40.8106C115.537 40.8105 115.537 40.8106 115.537 40.8107C115.537 40.811 115.537 40.8118 115.536 40.8129C115.535 40.8152 115.534 40.8191 115.531 40.8247C115.527 40.8357 115.519 40.8531 115.509 40.8764C115.488 40.9231 115.456 40.9934 115.413 41.084C115.325 41.2654 115.192 41.5275 115.009 41.8435C114.643 42.4763 114.084 43.3198 113.31 44.1618C111.765 45.8444 109.389 47.5 106 47.5V48.5C109.753 48.5 112.378 46.6556 114.047 44.8382C114.881 43.9302 115.482 43.0237 115.875 42.344C116.072 42.0037 116.217 41.719 116.314 41.5175C116.362 41.4168 116.399 41.3367 116.423 41.2808C116.436 41.2529 116.445 41.231 116.452 41.2155C116.455 41.2078 116.458 41.2017 116.46 41.1972C116.46 41.195 116.461 41.1932 116.462 41.1918C116.462 41.1911 116.462 41.1905 116.462 41.1901C116.463 41.1898 116.463 41.1895 116.463 41.1894C116.463 41.1892 116.463 41.1889 116 41ZM106 43.3C104.689 43.3 103.643 42.2608 103.643 41H102.643C102.643 42.832 104.155 44.3 106 44.3V43.3ZM108.357 41C108.357 42.2608 107.311 43.3 106 43.3V44.3C107.845 44.3 109.357 42.832 109.357 41H108.357ZM106 38.7C107.311 38.7 108.357 39.7392 108.357 41H109.357C109.357 39.168 107.845 37.7 106 37.7V38.7ZM106 37.7C104.155 37.7 102.643 39.168 102.643 41H103.643C103.643 39.7392 104.689 38.7 106 38.7V37.7Z" fill="white"/>
<path d="M136.421 35.1L132.103 44.875L127.819 35.1H125.983L131.219 47H132.902L138.121 35.1H136.421ZM140.233 36.256C140.879 36.256 141.338 35.78 141.338 35.168C141.338 34.59 140.862 34.131 140.233 34.131C139.604 34.131 139.128 34.607 139.128 35.202C139.128 35.797 139.604 36.256 140.233 36.256ZM139.417 47H141.049V37.99H139.417V47ZM152.308 42.546C152.308 39.775 150.455 37.905 147.854 37.905C145.253 37.905 143.332 39.826 143.332 42.495C143.332 45.181 145.27 47.102 148.177 47.102C149.673 47.102 150.914 46.592 151.73 45.64L150.829 44.586C150.166 45.317 149.282 45.674 148.228 45.674C146.443 45.674 145.168 44.62 144.964 43.039H152.274C152.291 42.886 152.308 42.682 152.308 42.546ZM147.854 39.282C149.435 39.282 150.574 40.353 150.744 41.866H144.964C145.134 40.336 146.29 39.282 147.854 39.282ZM166.58 37.99L163.894 45.198L161.225 37.99H159.848L157.128 45.164L154.51 37.99H152.963L156.312 47H157.876L160.511 40.166L163.112 47H164.676L168.042 37.99H166.58ZM179.823 47.136C181.676 47.136 183.274 46.49 184.362 45.266L183.257 44.195C182.339 45.164 181.217 45.623 179.908 45.623C177.222 45.623 175.233 43.685 175.233 41.05C175.233 38.415 177.222 36.477 179.908 36.477C181.217 36.477 182.339 36.919 183.257 37.888L184.362 36.817C183.274 35.593 181.676 34.964 179.84 34.964C176.219 34.964 173.533 37.531 173.533 41.05C173.533 44.569 176.219 47.136 179.823 47.136ZM195.307 35.1L190.989 44.875L186.705 35.1H184.869L190.105 47H191.788L197.007 35.1H195.307Z" fill="#F5F7F8"/>
<defs>
<filter id="filter0_d_1_90" x="0" y="0" width="293" height="90" filterUnits="userSpaceOnUse" color-interpolation-filters="sRGB">
<feFlood flood-opacity="0" result="BackgroundImageFix"/>
<feColorMatrix in="SourceAlpha" type="matrix" values="0 0 0 0 0 0 0 0 0 0 0 0 0 0 0 0 0 0 127 0" result="hardAlpha"/>
<feOffset dy="4"/>
<feGaussianBlur stdDeviation="7.5"/>
<feColorMatrix type="matrix" values="0 0 0 0 1 0 0 0 0 0.666667 0 0 0 0 0.00392157 0 0 0 0.29 0"/>
<feBlend mode="normal" in2="BackgroundImageFix" result="effect1_dropShadow_1_90"/>
<feBlend mode="normal" in="SourceGraphic" in2="effect1_dropShadow_1_90" result="shape"/>
</filter>
</defs>
</svg>
